<?xml version="1.0" standalone="no"?>
<!DOCTYPE svg PUBLIC "-//W3C//DTD SVG 20010904//EN"
 "http://www.w3.org/TR/2001/REC-SVG-20010904/DTD/svg10.dtd">
<svg version="1.0" xmlns="http://www.w3.org/2000/svg"
 width="960.000000pt" height="638.000000pt" viewBox="0 0 960.000000 638.000000"
 preserveAspectRatio="xMidYMid meet">
<metadata>
Created by potrace 1.15, written by Peter Selinger 2001-2017
</metadata>
<g transform="translate(0.000000,638.000000) scale(0.100000,-0.100000)"
fill="#000000" stroke="none">
<path d="M0 5120 l0 -1259 44 16 c25 9 43 20 41 23 -6 10 100 32 175 37 36 2
100 10 144 18 43 8 93 15 112 15 22 0 33 4 32 13 -2 6 4 11 12 9 28 -6 80 9
80 23 0 9 10 15 25 15 14 0 25 5 25 10 0 17 22 11 41 -11 l18 -21 30 23 c28
21 32 49 7 49 -7 0 -12 15 -13 36 -1 39 -19 64 -49 68 -26 4 -58 64 -44 82 15
17 4 34 -23 34 -21 1 -21 1 -4 15 14 10 17 20 11 37 -4 13 -7 29 -5 37 2 9 -3
12 -13 8 -12 -5 -16 0 -16 16 0 20 4 22 43 20 40 -2 41 -2 15 9 -33 14 -35 24
-8 38 27 14 15 33 -16 26 -25 -7 -34 8 -11 18 10 5 10 7 0 12 -7 3 -13 12 -13
20 0 19 59 19 66 -1 4 -8 16 -15 28 -14 20 0 20 1 1 9 -23 9 -12 11 135 32
124 17 176 15 210 -10 49 -37 143 -46 267 -27 123 19 245 29 318 26 85 -4 99
-4 145 3 25 3 110 10 190 15 164 10 207 7 284 -18 33 -11 47 -11 95 3 31 9 71
19 90 24 44 10 53 32 13 32 -16 0 -35 6 -41 14 -15 18 -18 144 -4 176 6 14 12
30 14 35 1 6 11 19 22 30 10 11 26 36 35 55 9 19 23 44 32 54 28 36 91 96 98
94 4 0 25 7 47 17 37 16 272 58 285 50 3 -1 30 1 60 6 67 12 298 14 360 4 25
-4 54 -8 65 -10 11 -1 24 -3 29 -4 5 0 6 -4 3 -8 -4 -4 5 -12 20 -18 16 -7 34
-25 42 -41 7 -16 17 -37 22 -46 20 -40 13 -113 -17 -168 -24 -44 -40 -60 -89
-87 -96 -52 -106 -55 -181 -62 -77 -7 -104 -21 -104 -56 0 -21 30 -65 44 -65
4 0 14 -7 23 -15 8 -8 19 -13 24 -10 5 4 9 2 9 -3 0 -10 70 -45 77 -38 3 2 19
-1 36 -8 37 -14 168 -12 301 5 50 7 136 13 191 15 99 3 100 3 128 36 16 18 90
156 165 307 131 263 139 276 185 308 27 18 65 37 85 42 22 6 712 12 1664 16
l1628 7 36 -36 c34 -34 36 -40 31 -79 -4 -23 -34 -114 -68 -202 -170 -441
-323 -848 -344 -915 -13 -41 -38 -112 -55 -158 -16 -46 -30 -92 -30 -103 0
-11 -4 -18 -8 -15 -5 3 -9 -8 -9 -24 0 -36 19 -39 40 -7 15 21 16 21 33 5 12
-12 14 -18 6 -18 -7 0 -10 -5 -7 -10 3 -6 21 -10 39 -10 17 0 38 -6 44 -12 10
-10 14 -8 18 10 7 26 24 29 24 4 0 -18 33 -52 51 -52 5 0 15 -13 20 -30 9 -24
17 -30 40 -30 16 0 29 5 29 10 0 6 6 5 14 -2 8 -7 12 -16 10 -19 -1 -3 6 -13
17 -22 10 -9 19 -24 19 -32 0 -16 110 -75 139 -75 7 0 11 -6 8 -14 -3 -8 3
-22 13 -31 12 -11 19 -12 22 -5 2 6 22 -7 45 -29 23 -23 46 -41 52 -41 6 0 13
-11 17 -24 7 -28 34 -43 44 -25 6 8 9 8 14 0 4 -6 2 -11 -3 -11 -6 0 -11 -7
-11 -15 0 -8 6 -15 13 -15 25 0 60 -40 64 -72 2 -17 8 -37 14 -45 9 -10 6 -13
-15 -13 -23 0 -26 -3 -21 -21 5 -13 3 -19 -3 -15 -5 3 -21 -3 -33 -14 -19 -16
-21 -21 -10 -29 9 -6 10 -10 2 -16 -7 -4 -18 -1 -26 5 -12 10 -15 9 -15 -8 0
-15 -5 -20 -15 -16 -20 8 -58 -38 -42 -48 8 -5 5 -8 -7 -8 -11 0 -16 -5 -13
-14 4 -10 -6 -13 -46 -11 -30 1 -62 -4 -75 -12 -12 -8 -26 -12 -30 -9 -9 5
-146 17 -219 20 -22 0 -45 4 -49 8 -4 4 -13 3 -21 -3 -9 -8 -17 -8 -25 -2 -33
26 -98 25 -98 -2 0 -19 -48 -25 -94 -11 -23 7 -47 11 -54 8 -6 -2 -12 1 -12 7
0 6 -7 11 -16 11 -8 0 -13 4 -10 9 3 5 -1 12 -10 15 -27 10 -44 7 -44 -9 0
-20 -17 -19 -29 3 -10 15 -11 15 -17 -6 -7 -23 -10 -25 -64 -23 -38 1 -48 -4
-68 -34 -42 -66 -60 -143 -35 -152 8 -3 19 0 24 8 8 12 10 12 18 0 6 -9 10
-10 12 -2 3 7 11 13 19 15 8 2 27 8 42 14 28 12 97 20 223 26 74 4 206 -13
290 -37 28 -8 64 -15 82 -16 38 -1 90 -22 91 -36 2 -15 109 -34 121 -22 8 8
11 8 11 -1 0 -6 18 -17 40 -23 22 -7 40 -16 40 -21 0 -10 -64 -11 -73 -1 -10
10 -90 16 -84 6 3 -4 -14 -9 -37 -9 -22 -1 -54 -7 -69 -13 l-28 -11 28 -25
c23 -20 25 -26 14 -34 -10 -6 2 -11 41 -16 44 -6 55 -11 54 -24 -3 -13 -18
-16 -100 -17 -70 -1 -100 -5 -106 -14 -8 -13 -35 -17 -152 -21 -27 -2 -48 -7
-48 -12 0 -5 -13 -7 -30 -5 -53 8 -32 -9 27 -21 73 -14 100 -14 106 2 4 8 11
6 24 -9 10 -12 31 -25 47 -28 15 -4 26 -9 23 -12 -3 -3 -52 1 -109 10 -108 16
-128 19 -273 37 -49 6 -118 20 -152 30 -34 11 -83 19 -110 18 -26 0 -59 2 -73
6 -31 8 -91 -12 -71 -24 10 -7 11 -13 2 -30 -7 -11 -15 -21 -20 -21 -5 0 -21
-28 -36 -63 -53 -120 -59 -130 -100 -173 -23 -24 -55 -46 -71 -49 -16 -4 -39
-11 -52 -16 -13 -5 -33 -9 -45 -9 l-21 0 22 16 c15 10 22 25 22 46 0 30 0 31
-45 25 -25 -2 -54 -12 -65 -22 -12 -11 -26 -14 -40 -10 -21 7 -145 -29 -155
-46 -4 -5 -23 -8 -43 -8 -36 1 -221 -40 -275 -60 -35 -13 -36 -41 -2 -41 43 0
290 52 296 62 4 7 13 7 25 0 16 -9 16 -12 4 -16 -39 -13 -435 -93 -805 -164
-207 -39 -849 -181 -1140 -252 -377 -92 -423 -102 -536 -107 -160 -8 -142 -12
-909 204 -590 166 -677 191 -760 223 -87 33 -414 125 -480 135 -39 6 -1017
282 -1062 300 -23 9 -23 32 0 39 29 8 117 24 337 61 281 47 275 46 250 57 -16
6 -14 7 8 3 36 -7 158 5 152 15 -3 5 4 6 15 3 11 -3 37 -2 57 2 29 6 34 9 20
14 -17 6 -16 8 8 19 20 9 37 9 71 1 46 -12 123 -7 152 11 13 7 10 9 -18 10
-19 0 -48 7 -64 15 -15 8 -37 15 -48 15 -12 0 -53 12 -92 26 -39 14 -89 25
-111 24 -84 -4 -121 0 -105 10 21 13 5 24 -38 24 -20 0 -39 3 -42 8 -9 13
-242 79 -430 122 -101 23 -180 48 -180 56 0 7 118 4 176 -4 18 -2 45 -11 62
-20 41 -21 69 -22 52 -1 -11 13 -8 15 15 15 22 0 25 -3 16 -14 -9 -11 -9 -16
-1 -21 22 -14 115 -35 153 -35 21 0 48 -5 59 -11 15 -8 19 -8 14 0 -8 12 7 14
84 13 63 -1 92 -7 131 -28 19 -10 48 -23 64 -29 33 -11 138 -12 143 -2 6 18 0
28 -15 26 -30 -3 -43 1 -43 11 0 6 7 10 15 10 18 0 19 12 3 28 -20 20 -1 25
52 15 32 -7 53 -7 56 -1 4 6 25 7 50 3 55 -8 84 1 84 25 0 13 5 17 14 14 8 -3
13 -11 10 -18 -3 -9 21 -17 81 -27 81 -15 86 -14 120 5 32 18 36 19 53 3 10
-9 22 -17 26 -17 13 0 -24 45 -37 45 -7 0 -11 11 -10 25 1 14 0 20 -3 14 -4
-9 -11 -9 -29 0 -14 6 -25 14 -25 18 0 3 -23 9 -51 13 -42 6 -56 4 -78 -12
-31 -22 -76 -21 -102 3 -12 11 -28 15 -46 11 -22 -4 -32 0 -46 19 -17 22 -17
26 -2 47 l16 22 -93 11 c-79 9 -125 7 -313 -12 -121 -13 -231 -27 -245 -30
-28 -8 -42 -23 -33 -37 3 -5 9 -4 13 3 10 16 178 -3 220 -25 15 -8 49 -14 75
-13 31 0 52 -5 63 -16 10 -10 12 -16 4 -16 -7 0 -12 -4 -12 -10 0 -5 9 -10 20
-10 11 0 20 -4 20 -10 0 -8 -47 -7 -160 4 -19 2 -39 0 -45 -4 -13 -10 -164 22
-173 36 -13 21 -79 26 -359 30 -268 3 -284 5 -303 24 l-20 20 23 0 c21 1 20 2
-6 16 -15 8 -27 19 -27 24 0 6 -29 10 -65 10 l-65 0 0 -1520 0 -1520 2323 1
2322 0 -49 20 c-28 11 -74 31 -103 45 -30 13 -58 24 -62 24 -5 0 -11 4 -13 8
-1 5 -41 31 -88 57 -47 27 -87 52 -90 55 -6 9 -114 50 -160 61 -19 5 -93 14
-165 20 -171 13 -182 15 -235 27 -25 5 -85 17 -135 27 -206 38 -411 91 -500
130 -16 7 -75 28 -130 45 -125 41 -222 76 -257 95 -14 8 -34 15 -43 15 -9 0
-40 9 -68 21 -29 12 -63 26 -77 31 -14 6 -38 16 -55 23 -131 54 -186 75 -222
85 -23 6 -45 14 -47 19 -3 5 -19 11 -34 14 -16 3 -65 22 -108 43 -43 20 -83
37 -89 38 -5 1 -14 4 -20 8 -5 3 -57 25 -115 47 -58 23 -114 47 -125 53 -33
18 -225 98 -285 118 -30 10 -86 32 -125 50 -38 18 -110 47 -160 66 -49 19
-103 41 -120 48 -62 29 -253 109 -340 143 -49 20 -118 51 -153 70 -53 30 -141
67 -215 90 -10 3 -21 19 -24 35 -4 19 -10 27 -19 24 -22 -9 -26 12 -4 24 11 6
18 15 15 21 -4 5 -1 9 4 9 14 0 14 33 0 47 -6 6 -9 22 -5 36 5 23 8 23 53 15
27 -5 76 -10 110 -12 34 -2 94 -7 135 -12 104 -11 126 -4 113 35 -4 14 -15 21
-31 21 -13 0 -24 4 -24 10 0 6 31 7 80 3 69 -5 80 -4 80 10 0 11 15 20 43 28
23 6 47 14 52 19 6 4 24 10 40 14 35 9 65 33 65 53 0 15 9 16 30 3 12 -8 12
-10 -3 -16 -29 -11 -19 -31 21 -38 52 -8 82 -7 82 3 0 5 -12 9 -26 9 -25 0
-52 17 -42 27 2 3 29 0 59 -6 30 -6 74 -15 99 -19 25 -4 74 -15 110 -24 36 -9
88 -21 115 -26 28 -6 69 -16 92 -22 23 -6 55 -8 70 -5 16 3 75 -7 133 -23 221
-58 307 -83 375 -105 39 -13 85 -26 103 -30 18 -3 51 -12 75 -19 106 -35 277
-86 332 -99 67 -16 325 -86 455 -124 47 -13 101 -28 120 -33 19 -5 62 -16 95
-25 33 -9 96 -25 140 -36 44 -11 96 -25 116 -31 69 -20 244 -14 419 15 91 15
185 29 210 32 25 3 68 8 95 11 28 3 95 21 151 39 55 19 150 42 210 51 60 9
172 32 249 51 187 47 254 61 328 69 34 4 72 14 85 22 17 11 26 12 35 3 8 -8 8
-14 -1 -23 -28 -28 -4 -77 54 -106 34 -18 107 -43 139 -48 17 -3 41 -9 55 -14
14 -5 43 -14 65 -19 150 -35 315 -81 400 -111 33 -12 125 -37 205 -55 236 -56
288 -70 296 -78 5 -4 1 -5 -7 -2 -24 9 -53 -39 -39 -65 20 -37 50 -45 185 -45
103 -1 144 -5 195 -22 36 -11 99 -26 140 -32 41 -7 84 -16 95 -21 11 -4 52
-16 90 -25 39 -9 79 -21 90 -26 11 -4 101 -35 199 -69 98 -33 203 -71 232 -85
29 -14 58 -25 63 -25 19 0 51 -39 51 -62 0 -22 -3 -23 -83 -22 -45 1 -91 4
-103 8 -13 5 -25 2 -33 -8 -17 -20 -41 -21 -41 -1 0 11 -11 15 -36 15 -21 0
-33 -4 -29 -10 8 -12 3 -13 -29 0 -31 11 -40 0 -31 -39 5 -23 13 -30 41 -36
19 -3 43 -15 52 -26 9 -10 27 -19 39 -19 13 0 23 -3 23 -8 0 -21 61 -42 128
-44 12 0 22 -6 22 -14 0 -8 3 -14 8 -15 4 0 36 -3 72 -5 51 -4 70 -10 90 -29
15 -14 31 -25 38 -25 18 0 35 -37 19 -43 -6 -3 -2 -6 11 -6 22 -1 33 -21 11
-21 -6 0 -8 -7 -5 -15 3 -9 -1 -18 -9 -21 -8 -4 -12 -10 -9 -15 3 -5 -7 -4
-21 1 -36 14 -44 12 -22 -4 16 -13 16 -14 -9 -20 -15 -4 -30 -3 -33 2 -7 12
-92 8 -118 -6 -10 -5 -24 -7 -32 -4 -9 3 -11 0 -6 -8 6 -10 -1 -11 -31 -6 -56
9 -55 9 -106 -9 -60 -22 -73 -51 -64 -140 4 -40 2 -73 -4 -85 -11 -20 -6 -20
1055 -20 l1065 0 0 739 0 740 -56 -6 c-55 -6 -56 -6 -45 15 7 14 29 26 56 33
44 11 45 13 45 50 0 23 -5 39 -12 39 -6 0 -59 -11 -117 -24 -187 -44 -294 -65
-396 -81 -136 -22 -281 -59 -387 -101 -324 -126 -434 -148 -717 -140 -242 7
-355 18 -591 58 -96 16 -227 38 -290 49 -63 10 -141 24 -173 30 -54 10 -65 9
-143 -17 l-83 -27 -73 20 c-40 11 -112 37 -159 57 -61 25 -123 42 -210 56 -68
10 -171 28 -228 40 -58 11 -152 27 -210 35 -59 8 -116 16 -128 19 -12 2 -75
12 -140 22 -65 10 -121 22 -124 27 -7 10 -60 5 -108 -9 -23 -7 -24 -6 -17 27
4 19 9 50 12 69 6 43 28 68 68 75 223 38 461 86 654 130 131 30 249 55 263 55
41 0 51 -20 43 -88 -7 -67 11 -116 48 -127 12 -4 89 -7 172 -7 128 0 161 3
213 21 34 11 76 21 93 21 16 0 30 5 30 10 0 6 10 2 22 -10 24 -22 38 -26 38
-9 0 8 4 8 13 1 11 -9 140 -15 652 -27 110 -3 295 -9 410 -15 411 -19 464 -20
470 -10 3 6 21 10 39 10 53 0 70 19 62 69 -8 49 5 78 40 92 24 9 79 1 279 -41
297 -62 446 -89 633 -115 l52 -8 0 2317 0 2316 -3503 0 c-3481 0 -3504 0
-3525 -20 -27 -25 -39 -25 -52 0 -11 20 -21 20 -1265 20 l-1255 0 0 -1260z
m4611 1079 c16 -16 16 -18 -2 -45 -10 -16 -24 -29 -31 -29 -7 0 -19 -5 -25
-12 -7 -6 -18 -13 -24 -15 -9 -3 -8 -10 2 -28 7 -14 12 -30 11 -36 -1 -6 10
-11 26 -11 15 0 41 -6 57 -14 29 -14 30 -16 33 -99 2 -68 -1 -93 -17 -125 -14
-29 -16 -42 -8 -47 8 -5 7 -8 -3 -8 -8 0 -20 -8 -27 -19 -16 -25 -60 -35 -94
-20 -21 8 -30 20 -35 44 -3 19 -12 36 -20 39 -8 3 -14 19 -14 38 0 32 -17 90
-34 116 -5 9 0 22 14 37 14 15 19 28 14 37 -6 10 -4 10 9 -1 15 -12 17 -11 17
8 0 12 6 21 16 21 8 0 13 4 10 9 -4 5 0 12 6 15 7 3 1 3 -14 0 -28 -6 -28 -6
-16 27 9 24 13 29 16 17 4 -22 18 -23 26 -3 3 8 -2 19 -12 24 -15 9 -14 12 4
10 4 0 15 19 26 43 28 62 48 68 89 27z m-2873 -1221 l45 -21 -34 -29 c-19 -15
-58 -40 -87 -55 -30 -14 -59 -32 -66 -39 -7 -7 -24 -14 -37 -16 -23 -3 -24 -1
-22 57 2 49 7 63 25 77 13 10 28 22 34 27 31 26 89 25 142 -1z m5427 -2852
c55 -9 144 -20 198 -26 123 -13 277 -44 317 -65 70 -36 44 -38 -385 -31 -351
5 -415 4 -415 -8 0 -7 11 -39 25 -71 37 -82 25 -78 -14 5 -17 39 -36 70 -42
70 -12 0 -13 4 21 -75 33 -79 36 -97 16 -89 -8 3 -47 6 -88 7 l-73 2 -47 90
c-27 49 -48 97 -48 106 0 11 28 24 103 47 222 69 231 69 432 38z m1642 -846
c23 0 21 -4 -24 -44 -115 -106 -343 -182 -421 -142 -61 31 -58 77 6 110 76 39
318 89 386 80 16 -2 40 -4 53 -4z"/>
<path d="M6920 5240 l-405 -5 588 -3 c640 -2 649 -3 663 -56 3 -14 3 -38 -1
-53 -6 -25 -97 -266 -211 -562 -25 -63 -43 -116 -40 -118 4 -4 74 171 208 517
106 272 91 292 -222 288 -96 -2 -357 -5 -580 -8z"/>
<path d="M2835 4721 c-3 -6 -13 -10 -23 -9 -9 0 -35 -7 -57 -16 -22 -8 -48
-15 -58 -16 -9 0 -31 -13 -47 -29 l-30 -28 82 -7 c107 -8 180 4 212 35 27 25
34 49 15 49 -6 0 -17 7 -25 15 -17 17 -60 20 -69 6z"/>
<path d="M4433 4484 c-74 -156 -123 -264 -123 -270 0 -3 5 -2 10 1 6 3 10 1
10 -4 0 -6 -7 -11 -15 -11 -8 0 -15 -4 -15 -9 0 -8 10 -8 59 1 3 1 13 -1 21
-5 40 -15 60 -14 70 1 8 15 11 15 25 -5 12 -16 26 -23 51 -23 22 0 33 4 29 11
-4 5 -21 9 -38 7 -29 -3 -32 0 -32 26 0 19 8 34 23 44 14 9 22 10 22 3 0 -6
-5 -11 -11 -11 -5 0 -8 -4 -5 -9 3 -5 -1 -11 -9 -15 -8 -3 -15 -12 -15 -21 0
-16 16 -21 22 -6 6 16 60 -1 65 -20 3 -12 14 -19 27 -18 20 0 20 1 1 9 l-20 9
20 0 c34 1 68 -11 55 -19 -7 -4 5 -9 28 -11 29 -3 38 -1 35 8 -3 7 0 13 6 13
6 0 11 -6 11 -14 0 -18 40 -29 108 -30 42 -1 53 2 58 16 8 26 26 22 19 -4 -3
-13 -3 -18 2 -13 4 6 17 15 28 21 11 6 20 22 21 36 1 14 4 30 8 37 4 6 0 14
-8 17 -13 5 -9 12 17 37 19 18 27 32 20 34 -7 2 -9 11 -6 19 7 19 23 18 23 -1
0 -8 4 -15 10 -15 6 0 5 10 -2 25 -8 18 -8 28 0 38 9 10 8 17 -1 27 -10 10 -9
12 6 7 20 -7 23 3 5 21 -9 9 -4 9 23 1 19 -6 39 -11 44 -12 6 -2 16 -6 23 -10
6 -5 17 -5 22 -2 6 4 10 3 9 -2 -3 -19 2 -27 10 -14 9 14 28 2 71 -42 16 -17
19 -17 27 -2 6 9 16 13 25 10 21 -8 32 -35 19 -48 -6 -6 -12 -1 -17 17 l-6 26
-24 -22 c-29 -28 -31 -41 -4 -33 11 3 20 2 20 -3 0 -5 -9 -12 -20 -15 -11 -3
-20 -1 -20 5 0 5 -10 2 -22 -6 -12 -9 -32 -13 -44 -10 -29 7 -41 -14 -14 -24
19 -7 20 -9 6 -21 -9 -7 -13 -17 -10 -22 3 -5 -2 -9 -10 -9 -21 0 -20 17 2 29
9 6 12 11 5 11 -6 0 -15 -5 -18 -10 -4 -6 -11 -8 -16 -5 -24 15 -6 -24 20 -43
27 -20 30 -20 34 -4 4 16 5 16 6 0 1 -10 7 -15 14 -12 8 3 24 1 38 -4 31 -12
50 -5 42 15 -6 15 -4 15 17 0 14 -9 34 -17 46 -17 12 0 24 -6 27 -14 3 -8 32
-22 64 -31 32 -9 86 -25 120 -36 34 -11 80 -21 102 -23 22 -2 46 -10 55 -18
24 -24 95 -32 117 -12 11 10 25 13 38 9 12 -4 21 -2 21 4 0 6 -8 11 -17 11
-25 0 -44 42 -27 58 7 7 20 12 29 12 8 0 15 9 15 20 0 24 -16 26 -28 3 -9 -14
-11 -14 -22 6 -9 18 -9 29 0 51 14 34 40 48 40 21 0 -10 6 -31 14 -46 15 -29
11 -53 -11 -70 -8 -6 -9 -15 -4 -23 6 -10 14 -6 34 17 29 35 43 41 27 12 -13
-25 -13 -44 0 -36 6 3 10 -1 10 -9 0 -10 9 -16 25 -16 31 0 24 25 -12 37 l-25
9 22 24 21 25 -6 -23 c-9 -33 18 -50 80 -50 27 0 44 2 38 5 -7 3 -13 12 -13
21 0 12 5 11 25 -8 18 -17 37 -23 77 -25 29 -1 85 -11 123 -23 39 -11 97 -23
130 -26 55 -5 89 -11 210 -37 22 -4 44 -8 49 -9 5 0 3 -6 -3 -13 -8 -11 -5
-14 19 -14 16 0 31 5 34 11 122 298 215 526 220 544 6 18 4 22 -14 22 -11 0
-23 -7 -26 -15 -4 -10 -18 -13 -52 -10 -26 2 -141 7 -257 10 -115 4 -212 10
-215 15 -3 4 -129 10 -280 14 -151 3 -365 9 -475 11 -427 11 -543 15 -621 24
-44 6 -186 13 -315 17 l-234 7 -42 -89z"/>
<path d="M4199 3983 l-66 -138 41 -8 c58 -10 819 -68 824 -62 3 3 -1 5 -8 5
-7 0 -21 7 -31 16 -15 14 -65 24 -131 27 -9 1 -15 4 -12 8 4 7 -56 19 -98 19
-21 0 -28 5 -28 20 0 11 6 20 13 21 6 0 20 2 29 4 10 2 21 -1 24 -6 3 -6 17 3
30 18 l24 28 -22 6 -23 6 25 11 c24 10 24 11 3 11 -12 1 -28 -6 -37 -14 -18
-19 -27 -19 -20 -1 4 9 -8 16 -38 21 -38 7 -40 8 -18 14 35 10 13 20 -57 27
-32 3 -69 8 -83 9 -14 2 -35 4 -47 4 -13 1 -23 6 -23 12 0 6 9 9 20 6 11 -3
20 -1 20 4 0 5 12 9 28 10 l27 1 -29 8 c-15 5 -53 12 -85 16 -54 8 -55 8 -21
15 33 6 33 6 -13 8 -29 0 -46 -3 -42 -9 10 -17 -45 -24 -58 -7 -7 8 -21 18
-33 21 -18 5 -28 -10 -85 -131z"/>
<path d="M1773 3822 c-9 -6 -6 -45 9 -146 20 -135 47 -231 56 -193 2 9 12 17
23 17 23 0 23 3 5 38 -12 24 -27 105 -43 235 -5 38 -29 62 -50 49z"/>
<path d="M4112 3803 c-4 -10 -7 -29 -6 -43 2 -26 -13 -53 -25 -45 -14 8 -86
-164 -79 -186 4 -12 48 67 48 86 0 7 9 15 19 18 11 2 33 26 49 52 27 44 30 45
36 23 6 -23 7 -23 21 -3 32 44 50 62 56 59 4 -2 61 -6 128 -9 67 -3 126 -6
132 -8 12 -2 36 29 29 37 -4 4 -348 36 -386 36 -7 0 -17 -8 -22 -17z"/>
<path d="M4219 3705 c-13 -13 -33 -25 -44 -25 -12 0 -16 -3 -9 -8 14 -9 -10
-70 -31 -78 -18 -7 -99 -114 -91 -121 3 -4 15 2 27 13 21 19 21 19 17 -1 -3
-18 -11 -20 -70 -18 -53 2 -67 -1 -72 -14 -4 -9 -3 -19 1 -23 4 -4 93 -17 198
-29 219 -25 216 -26 212 63 -3 54 15 111 26 82 4 -9 10 -16 15 -16 11 0 45 75
45 98 0 9 4 23 9 29 6 7 7 20 4 29 -4 12 -2 15 9 10 9 -3 19 3 25 14 9 17 7
20 -9 20 -27 0 -121 -129 -121 -165 0 -7 -7 -18 -16 -26 -8 -7 -26 -34 -39
-59 l-23 -46 -83 8 c-45 4 -84 10 -86 12 -8 8 26 76 41 82 8 3 12 12 10 19 -3
7 2 29 10 49 15 35 21 38 76 40 27 1 43 39 28 69 -12 24 -32 21 -59 -8z"/>
<path d="M5979 3424 c-21 -10 -39 -43 -83 -150 -31 -75 -56 -140 -56 -144 0
-4 12 -12 28 -18 40 -16 473 -65 482 -55 15 17 138 335 134 347 -10 26 -46 14
-90 -30 -41 -41 -44 -43 -38 -18 6 24 5 26 -17 19 -13 -4 -26 -12 -27 -17 -6
-13 -53 -35 -94 -42 -30 -5 -40 -3 -57 15 l-20 22 4 -26 c3 -14 1 -29 -5 -32
-6 -4 -11 6 -11 22 -2 44 -6 68 -14 99 l-7 29 -9 -24 c-5 -13 -7 -32 -4 -42
11 -33 -11 -20 -33 19 -23 41 -43 48 -83 26z m141 -130 c0 -40 4 -43 48 -31
57 14 88 -2 97 -52 4 -23 12 -44 17 -47 7 -5 8 -2 3 7 -5 8 -5 11 0 7 4 -4 14
0 21 10 7 9 14 12 14 5 1 -36 -81 -69 -144 -58 -22 3 -59 10 -80 13 -22 4 -41
13 -44 21 -3 10 1 12 16 9 13 -4 23 0 26 9 4 11 1 13 -14 8 -26 -8 -25 6 0 35
14 16 20 38 20 74 0 37 3 47 10 36 5 -8 10 -29 10 -46z"/>
<path d="M1861 3240 c-2 -89 19 -264 34 -279 13 -14 15 -13 15 4 0 12 3 16 8
9 4 -6 17 -13 30 -16 31 -9 43 18 31 68 -6 21 -14 62 -19 91 -4 28 -10 56 -13
60 -3 5 -1 15 4 23 8 13 11 12 20 -2 17 -30 48 -22 66 17 21 45 11 55 -50 48
-37 -4 -47 -9 -43 -20 11 -26 -5 -35 -25 -14 -10 11 -19 25 -19 31 0 5 -4 10
-10 10 -5 0 -7 -7 -4 -15 4 -8 1 -15 -4 -15 -6 0 -13 8 -15 18 -3 9 -5 1 -6
-18z"/>
<path d="M5721 2863 c-11 -23 -10 -29 5 -40 10 -7 24 -13 31 -13 7 0 13 -11
13 -26 0 -25 -2 -26 -44 -22 l-44 5 -25 -59 c-18 -41 -22 -60 -14 -62 30 -9
417 -66 461 -68 45 -3 50 -1 58 24 7 21 6 32 -7 44 -16 16 -13 46 7 72 14 16
-55 17 -85 0 -27 -15 -87 -20 -87 -7 0 5 -9 9 -20 9 -25 0 -25 4 3 36 21 24
25 25 86 19 36 -4 74 -10 85 -15 12 -4 32 -3 45 2 17 6 27 5 32 -3 4 -7 10 2
14 22 4 19 11 39 16 45 11 14 -69 26 -86 13 -11 -8 -74 -5 -122 5 -22 5 -30
12 -26 22 7 19 -14 18 -24 -1 -11 -20 -183 -9 -183 11 0 9 -13 14 -38 14 -32
0 -41 -4 -51 -27z"/>
<path d="M1909 2824 c-1 -43 -2 -45 -9 -19 l-8 30 -1 -27 c-1 -21 6 -31 29
-43 17 -9 30 -19 30 -23 0 -4 43 -6 96 -5 69 2 99 7 110 18 11 11 40 15 107
16 l92 1 -65 14 c-36 8 -112 18 -170 23 -58 5 -115 13 -127 16 -18 6 -23 3
-23 -12 0 -19 -17 -43 -32 -43 -4 0 -6 15 -4 34 1 19 -4 42 -11 52 -11 16 -13
12 -14 -32z"/>
<path d="M2600 2836 c-14 -7 -71 -19 -127 -26 -66 -8 -103 -17 -107 -26 -7
-18 59 -27 181 -22 113 3 135 13 124 56 -8 31 -34 38 -71 18z"/>
<path d="M3390 2680 c-7 -4 2 -10 24 -14 38 -7 48 -22 19 -29 -10 -2 20 -2 66
-1 61 2 88 -1 98 -11 12 -12 10 -16 -14 -22 -43 -12 -165 -8 -191 6 -13 7 -50
14 -82 16 -32 1 -73 10 -91 19 -36 18 -79 21 -79 6 0 -5 5 -10 11 -10 5 0 8
-4 4 -9 -7 -12 -107 -26 -159 -23 -22 1 -53 9 -69 17 -17 8 -44 15 -61 15 -17
0 -47 5 -66 11 -52 15 -137 22 -144 10 -4 -5 18 -15 49 -22 30 -7 55 -16 55
-20 0 -18 -109 -20 -197 -4 -50 9 -101 15 -114 13 -29 -4 171 -51 222 -52 20
-1 43 -7 50 -13 8 -6 43 -14 79 -18 36 -4 74 -10 85 -14 36 -15 142 -31 159
-25 9 3 16 2 16 -3 0 -10 101 -33 147 -33 17 0 33 -4 35 -8 2 -5 46 -17 98
-26 52 -9 120 -22 150 -28 30 -7 72 -12 93 -12 53 -1 46 -12 -15 -26 -92 -20
-151 -22 -213 -7 l-60 14 63 13 c94 19 75 29 -23 12 -74 -13 -95 -13 -157 -1
l-73 13 63 14 c91 20 76 32 -20 14 -69 -12 -91 -13 -152 -1 l-71 13 45 9 c78
15 91 28 20 20 -86 -10 -183 -8 -205 4 -15 9 -9 12 33 18 29 4 52 11 52 17 0
7 -17 8 -47 3 -97 -15 -109 -16 -173 -9 -47 5 -60 9 -45 15 11 4 34 8 52 8 36
1 57 21 22 21 -12 0 -50 -5 -83 -11 -54 -9 -77 -7 -205 20 -79 17 -152 31
-163 31 -26 0 -22 -20 5 -21 15 -1 10 -4 -13 -9 -123 -28 -144 -30 -202 -19
-53 11 -80 8 -66 -7 3 -3 39 -12 79 -19 41 -8 101 -21 134 -30 33 -8 70 -13
83 -10 12 3 22 1 22 -4 0 -12 95 -34 137 -33 18 1 33 -2 33 -7 0 -11 131 -41
180 -41 21 0 40 -4 42 -9 4 -13 802 -181 888 -188 36 -3 71 -10 78 -16 15 -12
186 -47 232 -47 20 0 40 -4 45 -9 14 -11 119 -31 170 -31 22 0 46 -5 52 -11
14 -14 125 -38 178 -39 23 0 45 -4 50 -9 15 -14 164 -42 190 -35 13 3 33 -1
47 -9 31 -20 166 -47 201 -40 41 8 32 20 -20 26 -61 7 -84 34 -52 60 27 22 50
22 184 -4 121 -23 201 -21 276 6 24 10 73 21 109 26 86 11 140 25 153 38 6 6
28 11 49 11 51 0 138 19 165 36 12 8 41 14 63 14 42 0 119 15 155 30 11 5 42
11 70 14 27 4 54 11 59 16 6 6 8 10 5 11 -30 3 -163 20 -194 25 -22 3 -50 10
-62 16 -12 6 -34 8 -49 5 -15 -3 -52 1 -81 9 -30 8 -65 14 -78 14 -13 0 -26 4
-29 9 -8 12 -66 20 -66 9 0 -11 -71 1 -89 15 -7 6 -28 10 -47 8 -22 -1 -34 2
-34 10 0 8 -13 10 -41 6 -42 -6 -179 18 -189 32 -8 12 -72 23 -65 11 9 -14
-17 -12 -55 4 -23 9 -28 15 -19 20 8 3 -6 4 -30 1 -25 -3 -47 -1 -50 4 -4 6
-27 13 -51 16 -35 4 -40 3 -25 -5 16 -8 11 -9 -20 -4 -22 3 -46 10 -53 16 -7
6 -28 8 -46 5 -27 -4 -34 -2 -30 8 5 11 -8 13 -61 12 -49 -1 -68 2 -75 13 -5
8 -10 10 -10 5 0 -6 -17 -9 -42 -6 -24 2 -37 6 -30 8 27 10 10 23 -24 17 -44
-7 -176 15 -167 29 3 5 -13 8 -38 6 -55 -3 -157 10 -165 22 -3 5 -26 9 -52 9
-26 0 -72 7 -102 16 -30 9 -75 17 -100 19 -25 2 -65 9 -90 15 -25 7 -71 14
-102 16 -32 3 -77 11 -102 18 -24 7 -49 10 -56 6z m-96 -70 c22 -5 44 -6 49
-3 5 3 12 1 16 -4 3 -5 49 -17 101 -26 52 -10 119 -22 149 -28 86 -16 89 -24
16 -37 -50 -10 -81 -10 -133 -1 -50 9 -62 14 -47 20 11 4 32 8 47 8 15 1 30 6
33 12 5 7 -7 8 -41 2 -64 -11 -171 -10 -209 1 l-30 9 30 7 c20 5 2 8 -55 8
-47 1 -98 6 -115 10 l-30 9 30 7 c17 4 41 10 55 15 25 8 64 5 134 -9z m-374
-171 c0 -8 102 -30 142 -31 18 0 38 -4 43 -8 14 -11 110 -30 148 -30 18 0 37
-4 43 -9 12 -10 117 -31 161 -31 18 0 33 -4 33 -8 0 -10 133 -36 173 -33 15 1
27 -3 27 -8 0 -4 14 -11 31 -15 44 -8 29 -21 -41 -35 -91 -18 -141 -15 -295
18 -77 16 -268 57 -425 91 -156 33 -286 62 -287 64 -2 2 31 9 72 16 42 7 77
16 79 19 5 8 96 8 96 0z m802 -79 c32 -6 66 -9 77 -5 11 3 21 0 24 -8 5 -15
82 -30 155 -31 23 0 42 -4 42 -8 0 -3 9 -10 20 -13 11 -4 18 -11 15 -16 -10
-15 -35 -10 -35 6 0 20 -41 19 -110 -1 -47 -14 -64 -14 -128 -4 -47 8 -68 16
-60 21 7 5 21 9 30 9 24 0 72 19 65 26 -3 3 -43 -2 -89 -12 -72 -15 -93 -15
-157 -4 -49 8 -69 15 -60 21 8 5 25 9 39 9 14 0 36 6 50 14 14 7 34 12 45 10
11 -2 46 -8 77 -14z m617 -203 c17 -15 128 -37 183 -37 41 0 47 -5 41 -30 -6
-21 -74 -50 -118 -50 -17 0 -47 9 -68 20 -20 11 -52 20 -71 20 -66 0 -87 28
-47 61 34 30 58 35 80 16z"/>
<path d="M4840 742 c-36 -7 -49 -33 -32 -60 20 -30 242 -42 297 -16 39 18 51
50 25 64 -22 12 -243 21 -290 12z"/>
</g>
</svg>
